<!DOCTYPE svg PUBLIC "-//W3C//DTD SVG 1.1//EN" "http://www.w3.org/Graphics/SVG/1.1/DTD/svg11.dtd">
<!-- Uploaded to: SVG Repo, www.svgrepo.com, Transformed by: SVG Repo Mixer Tools -->
<svg fill="#E0E0E0" height="800px" width="800px" version="1.1" id="Capa_1" xmlns="http://www.w3.org/2000/svg" xmlns:xlink="http://www.w3.org/1999/xlink" viewBox="0 0 60 60" xml:space="preserve" stroke="#E0E0E0">
<g id="SVGRepo_bgCarrier" stroke-width="0"/>
<g id="SVGRepo_tracerCarrier" stroke-linecap="round" stroke-linejoin="round"/>
<g id="SVGRepo_iconCarrier"> <path d="M54,2H6C2.748,2,0,4.748,0,8v33c0,3.252,2.748,6,6,6h8v10c0,0.413,0.254,0.784,0.64,0.933C14.757,57.978,14.879,58,15,58 c0.276,0,0.547-0.115,0.74-0.327L25.442,47H54c3.252,0,6-2.748,6-6V8C60,4.748,57.252,2,54,2z M12,15h15c0.553,0,1,0.448,1,1 s-0.447,1-1,1H12c-0.553,0-1-0.448-1-1S11.447,15,12,15z M46,33H12c-0.553,0-1-0.448-1-1s0.447-1,1-1h34c0.553,0,1,0.448,1,1 S46.553,33,46,33z M46,25H12c-0.553,0-1-0.448-1-1s0.447-1,1-1h34c0.553,0,1,0.448,1,1S46.553,25,46,25z"/> </g>
</svg>