<?xml version="1.0" encoding="UTF-8"?>
<svg version="1.1" xmlns="http://www.w3.org/2000/svg" width="2000" height="2400">
<path d="M0 0 C0.91604004 0.08721313 1.83208008 0.17442627 2.77587891 0.26428223 C82.58735044 7.93210566 161.36426178 25.56424401 382 154 C382.68594238 154.60110596 383.37188477 155.20221191 384.07861328 155.8215332 C390.93589851 161.89776507 397.44030388 168.28675678 403.90551758 174.77514648 C405.6917467 176.5667595 407.48329347 178.35293055 409.27539062 180.13867188 C415.06260747 185.92217681 420.73608997 191.72870364 426 198 C426.91205809 199.05659624 427.82478994 200.11261136 428.73828125 201.16796875 C485.88533077 268.20085081 524.55932398 349.78095234 544 480 C544.10586426 481.10819092 544.10586426 481.10819092 544.21386719 482.23876953 C545.61899034 497.10408039 545 512.10874748 545 527 C428.51 527 312.02 527 192 527 C191.341663 522.39164099 190.8402696 518.15821655 190.640625 513.5546875 C187.69306867 454.09603458 169.37749367 395.17556189 128 351 C127.43667969 350.39816895 126.87335937 349.79633789 126.29296875 349.17626953 C118.66411741 341.1147435 110.63624439 333.88257521 101.71923828 327.27490234 C100.05028678 326.0372902 98.39822447 324.77946181 96.74609375 323.51953125 C75.5276964 307.60336335 51.19755532 296.00884572 26 288 C25.07590332 287.70351563 24.15180664 287.40703125 23.19970703 287.1015625 C-0.71699621 279.51950179 -25.03083377 275.23653521 -50 273 C-51.04905518 272.90356201 -52.09811035 272.80712402 -53.17895508 272.70776367 C-64.69850878 271.79125933 -76.22510179 271.8138986 -87.7746582 271.81469727 C-91.2672172 271.81252812 -94.7594504 271.79436224 -98.25195312 271.77539062 C-118.91168542 271.72314396 -139.45954948 272.95728154 -159.9375 275.75 C-161.17854492 275.91918945 -162.41958984 276.08837891 -163.69824219 276.26269531 C-193.20285686 280.48192266 -221.98629228 288.34085663 -249 301 C-249.72896484 301.3403125 -250.45792969 301.680625 -251.20898438 302.03125 C-267.7603463 309.84166227 -282.95053056 319.43890691 -297.375 330.6875 C-297.97062744 331.15140137 -298.56625488 331.61530273 -299.17993164 332.09326172 C-301.70024505 334.08187099 -304.03529528 336.03595782 -306.2890625 338.33203125 C-308 340 -308 340 -310 340 C-310.3403125 340.83724609 -310.3403125 340.83724609 -310.6875 341.69140625 C-312.37434332 344.65844316 -314.51906586 346.59400397 -317 348.9375 C-338.76459998 370.18304291 -353.65815883 399.74158267 -361 429 C-361.19674316 429.73508789 -361.39348633 430.47017578 -361.59619141 431.22753906 C-372.07050882 470.74227653 -368.30715131 515.27190475 -348 551 C-341.24385019 562.54535703 -333.17245211 572.75576302 -324.15625 582.62109375 C-322.20384564 584.77510509 -320.31722641 586.97027726 -318.4375 589.1875 C-314.93073745 593.19636719 -311.06239466 596.56820582 -307 600 C-306.02546875 600.86238281 -305.0509375 601.72476563 -304.046875 602.61328125 C-288.23469664 616.56228627 -271.10796004 628.24744232 -253 639 C-252.19997559 639.48114258 -251.39995117 639.96228516 -250.57568359 640.45800781 C-175.52885979 685.45217914 -89.45022871 711.34820606 -6.4609375 737.3046875 C65.8797057 759.93104792 136.45469512 786.61520536 205 819 C206.09989258 819.51836426 207.19978516 820.03672852 208.33300781 820.57080078 C221.19774093 826.64528486 233.94249394 832.88622807 246.46728516 839.63574219 C249.30142243 841.16236249 252.14106963 842.67850288 254.98046875 844.1953125 C265.46722172 849.81573341 275.88169801 855.49891366 285.99902344 861.76318359 C288.30899301 863.19099056 290.62720981 864.60496878 292.9453125 866.01953125 C304.47929127 873.08121585 315.84148389 880.35826137 327 888 C327.68980957 888.47228027 328.37961914 888.94456055 329.09033203 889.43115234 C345.24712093 900.54918802 360.99612082 912.36515438 376 925 C377.02841846 925.85444042 378.05707794 926.70859078 379.0859375 927.5625 C386.41211817 933.67148855 393.46222169 940.03289857 400.43115234 946.54443359 C402.88971102 948.82546796 405.38668387 951.06402157 407.875 953.3125 C417.01662575 961.68928853 426.15881347 970.3327152 434.16015625 979.8203125 C435.68737544 981.6296295 437.23855066 983.40780374 438.80859375 985.1796875 C464.04659892 1013.76234846 485.31612332 1045.58284976 501.97314453 1079.88867188 C502.67017468 1081.32184275 503.37183549 1082.7527689 504.07763672 1084.18164062 C545.58626066 1168.26180249 555.61865153 1268.30757734 526 1433 C525.79584473 1433.67820801 525.59168945 1434.35641602 525.38134766 1435.05517578 C509.64122647 1487.31237812 480.15271799 1537.48656642 443.24365234 1577.55297852 C441.08962911 1579.90224673 438.96957149 1582.27843678 436.8515625 1584.66015625 C432.09344735 1589.94911935 427.15711856 1595.03475086 422.125 1600.0625 C421.24803467 1600.93938477 420.37106934 1601.81626953 419.4675293 1602.71972656 C414.27435377 1607.86720022 409.05457705 1612.7322699 403.27734375 1617.21875 C401.03785561 1618.97039081 398.96410935 1620.8228065 396.875 1622.75 C331.22284983 1681.62666136 242.28379314 1717.63094525 16 1761 C14.84967285 1761.09909668 13.6993457 1761.19819336 12.51416016 1761.30029297 C11.40218262 1761.39584473 10.29020508 1761.49139648 9.14453125 1761.58984375 C7.70944214 1761.7134729 7.70944214 1761.7134729 6.24536133 1761.83959961 C-19.07151724 1763.83538024 -44.35573758 1764.18846977 -69.73632812 1764.18530273 C-73.14426016 1764.18522186 -76.55205665 1764.19212287 -79.95996094 1764.20581055 C-110.45582449 1764.32614683 -140.82313737 1763.29671646 -171.1875 1760.3125 C-172.02666962 1760.23140991 -172.86583923 1760.15031982 -173.73043823 1760.06677246 C-258.06284469 1751.82008258 -342.69262466 1733.40146124 -421.07659912 1700.79956055 C-422.97752857 1700.00934141 -424.88045861 1699.22410575 -426.78369141 1698.43945312 C-455.46990699 1686.57448737 -483.21792662 1672.694295 -510 1657 C-511.92171518 1655.8864429 -513.84359298 1654.7731664 -515.765625 1653.66015625 C-525.79551043 1647.82282743 -535.64937648 1641.81392661 -545.20800781 1635.23144531 C-547.0668614 1633.95405329 -548.93492213 1632.69104467 -550.8046875 1631.4296875 C-565.98528021 1621.14856112 -580.70965634 1610.42696312 -594.48144531 1598.3125 C-596.72698326 1596.37166206 -599.0522197 1594.5346962 -601.375 1592.6875 C-606.95535055 1588.16849398 -612.14751963 1583.26544475 -617.34326172 1578.31518555 C-620.26117765 1575.5395626 -623.17349961 1572.81064708 -626.29296875 1570.26171875 C-628.47969173 1568.43471643 -630.21712898 1566.75563396 -632 1564.5625 C-635.41424029 1560.54128365 -639.11509336 1556.87971438 -642.875 1553.1875 C-647.94429058 1548.18756041 -652.57839952 1543.0931437 -656.99609375 1537.50390625 C-658.89933361 1535.12578393 -660.88444304 1532.87397492 -662.9375 1530.625 C-667.97094627 1525.01459744 -672.47874538 1519.0221282 -677 1513 C-677.41588379 1512.45166504 -677.83176758 1511.90333008 -678.26025391 1511.33837891 C-697.81302025 1485.52326863 -714.45684554 1457.90168417 -729 1429 C-729.60255615 1427.81688232 -729.60255615 1427.81688232 -730.21728516 1426.60986328 C-765.38338314 1357.19165623 -776 1277.79510783 -776 1201 C-658.19 1201 -540.38 1201 -419 1201 C-418.34 1213.21 -417.68 1225.42 -417 1238 C-416.13673816 1246.71109677 -415.24294613 1255.34551891 -414 1264 C-413.86368164 1264.95938477 -413.72736328 1265.91876953 -413.58691406 1266.90722656 C-406.34024735 1316.29501746 -387.12130548 1361.5390054 -354 1399 C-352.80890625 1400.37478516 -352.80890625 1400.37478516 -351.59375 1401.77734375 C-347.0357357 1406.96754839 -342.29155829 1411.57367069 -337 1416 C-336.05511719 1416.83273437 -335.11023438 1417.66546875 -334.13671875 1418.5234375 C-262.51677559 1481.34167835 -153.6821344 1493.51780594 -40.43713379 1489.58984375 C23.42182519 1485.31728809 86.7434408 1469.14352746 135 1425 C135.94230469 1424.14148437 136.88460937 1423.28296875 137.85546875 1422.3984375 C168.60413325 1393.02525439 188.15964065 1347.98250723 189.16113281 1305.39599609 C189.18066369 1303.77186701 189.19442999 1302.14766074 189.203125 1300.5234375 C189.21013931 1299.6436322 189.21715363 1298.7638269 189.22438049 1297.85736084 C189.24180367 1295.02985467 189.24823371 1292.2025579 189.25 1289.375 C189.25067474 1288.40947205 189.25134949 1287.44394409 189.25204468 1286.44915771 C189.23610311 1272.10621459 188.85618654 1258.10259521 186 1244 C185.74259033 1242.69361572 185.74259033 1242.69361572 185.47998047 1241.36083984 C181.61567136 1222.31556304 175.52740485 1203.97416119 166 1187 C165.63036133 1186.3404834 165.26072266 1185.6809668 164.87988281 1185.00146484 C153.2928367 1164.6971533 136.42359331 1147.2541804 118 1133 C116.99582031 1132.20207031 115.99164062 1131.40414063 114.95703125 1130.58203125 C62.23613705 1088.94275402 -4.42908864 1063.66569814 -67 1041 C-67.79531128 1040.71183411 -68.59062256 1040.42366821 -69.41003418 1040.12677002 C-95.03844371 1030.86308396 -120.91994966 1022.36333263 -146.8125 1013.875 C-148.43259757 1013.34382343 -150.05269441 1012.81264464 -151.67279053 1012.28146362 C-154.0771463 1011.4931713 -156.48150215 1010.70487921 -158.88585854 1009.91658878 C-207.86962957 993.8559176 -256.30010025 976.59019147 -304 957 C-304.65194336 956.73247925 -305.30388672 956.4649585 -305.97558594 956.18933105 C-354.93044944 936.08026361 -403.09079527 914.41655774 -449 888 C-449.98645508 887.43522949 -450.97291016 886.87045898 -451.98925781 886.28857422 C-474.32332357 873.48857503 -495.84370511 859.65796931 -517 845 C-517.76683105 844.47164551 -518.53366211 843.94329102 -519.32373047 843.39892578 C-534.42468196 832.98251497 -548.94193999 821.7866704 -563 810 C-563.5141748 809.57074219 -564.02834961 809.14148437 -564.55810547 808.69921875 C-577.81402844 797.60378072 -590.31549718 785.75656189 -602.5625 773.5625 C-603.30016602 772.82950684 -604.03783203 772.09651367 -604.79785156 771.34130859 C-608.83520531 767.29199913 -612.69708417 763.14665201 -616.42993164 758.81518555 C-618.54592323 756.3688479 -620.74176683 753.99975301 -622.9375 751.625 C-635.50346275 737.81188907 -646.61279533 722.50388103 -657 707 C-657.41040527 706.39172363 -657.82081055 705.78344727 -658.24365234 705.15673828 C-712.83992151 623.88810914 -732.45487646 523.61649657 -715.62109375 386.51171875 C-704.65448902 331.50089919 -681.56108097 279.59115815 -649 234 C-648.41009277 233.17274414 -647.82018555 232.34548828 -647.21240234 231.49316406 C-641.18894133 223.08706094 -635.17510771 214.80164227 -628.078125 207.2578125 C-625.74145931 204.71910429 -623.59453441 202.06762458 -621.4375 199.375 C-618.12984172 195.28500863 -614.66245683 191.5471776 -610.890625 187.88671875 C-609.03522279 186.03515002 -607.32714427 184.11746327 -605.625 182.125 C-599.6744321 175.22559439 -593.16449858 168.87390059 -586.23828125 162.9609375 C-583.95003345 160.95622477 -581.73522669 158.88242667 -579.52124023 156.79638672 C-572.91176566 150.58781309 -566.00823415 144.94241978 -558.82226562 139.41943359 C-556.92927434 137.94490903 -555.06371313 136.44095376 -553.203125 134.92578125 C-545.71690664 128.82950601 -538.12186274 123.23823842 -530 118 C-528.88480351 117.25154375 -527.77159741 116.50011531 -526.66015625 115.74609375 C-509.90380918 104.38852554 -492.67233917 93.97340086 -474.79150391 84.48388672 C-472.00429074 83.00228084 -469.22669259 81.5036738 -466.44921875 80.00390625 C-393.4047274 40.87292874 -310.25067084 17.52104837 -174 0 C-173.1372345 -0.0762561 -172.27446899 -0.15251221 -171.38555908 -0.2310791 C-114.81803218 -5.19381047 -56.54009417 -5.44611855 0 0 Z " fill="#FEFEFE" transform="translate(1097,285)"/>
<path d="M0 0 C0.91604004 0.08721313 1.83208008 0.17442627 2.77587891 0.26428223 C82.58735044 7.93210566 161.36426178 25.56424401 382 154 C382.68594238 154.60110596 383.37188477 155.20221191 384.07861328 155.8215332 C390.93589851 161.89776507 397.44030388 168.28675678 403.90551758 174.77514648 C405.6917467 176.5667595 407.48329347 178.35293055 409.27539062 180.13867188 C415.06260747 185.92217681 420.73608997 191.72870364 426 198 C426.91205809 199.05659624 427.82478994 200.11261136 428.73828125 201.16796875 C485.88533077 268.20085081 524.55932398 349.78095234 544 480 C544.10586426 481.10819092 544.10586426 481.10819092 544.21386719 482.23876953 C545.61899034 497.10408039 545 512.10874748 545 527 C428.51 527 312.02 527 192 527 C191.341663 522.39164099 190.8402696 518.15821655 190.640625 513.5546875 C187.69306867 454.09603458 169.37749367 395.17556189 128 351 C127.43667969 350.39816895 126.87335937 349.79633789 126.29296875 349.17626953 C118.66411741 341.1147435 110.63624439 333.88257521 101.71923828 327.27490234 C100.05028678 326.0372902 98.39822447 324.77946181 96.74609375 323.51953125 C75.5276964 307.60336335 51.19755532 296.00884572 26 288 C25.07590332 287.70351563 24.15180664 287.40703125 23.19970703 287.1015625 C-0.71699621 279.51950179 -25.03083377 275.23653521 -50 273 C-51.04905518 272.90356201 -52.09811035 272.80712402 -53.17895508 272.70776367 C-64.69850878 271.79125933 -76.22510179 271.8138986 -87.7746582 271.81469727 C-91.2672172 271.81252812 -94.7594504 271.79436224 -98.25195312 271.77539062 C-118.91168542 271.72314396 -139.45954948 272.95728154 -159.9375 275.75 C-161.17854492 275.91918945 -162.41958984 276.08837891 -163.69824219 276.26269531 C-193.20285686 280.48192266 -221.98629228 288.34085663 -249 301 C-249.72896484 301.3403125 -250.45792969 301.680625 -251.20898438 302.03125 C-267.7603463 309.84166227 -282.95053056 319.43890691 -297.375 330.6875 C-297.97062744 331.15140137 -298.56625488 331.61530273 -299.17993164 332.09326172 C-301.70024505 334.08187099 -304.03529528 336.03595782 -306.2890625 338.33203125 C-308 340 -308 340 -310 340 C-310.3403125 340.83724609 -310.3403125 340.83724609 -310.6875 341.69140625 C-312.37434332 344.65844316 -314.51906586 346.59400397 -317 348.9375 C-338.76459998 370.18304291 -353.65815883 399.74158267 -361 429 C-361.19674316 429.73508789 -361.39348633 430.47017578 -361.59619141 431.22753906 C-372.07050882 470.74227653 -368.30715131 515.27190475 -348 551 C-341.24385019 562.54535703 -333.17245211 572.75576302 -324.15625 582.62109375 C-322.20384564 584.77510509 -320.31722641 586.97027726 -318.4375 589.1875 C-314.93073745 593.19636719 -311.06239466 596.56820582 -307 600 C-306.02546875 600.86238281 -305.0509375 601.72476563 -304.046875 602.61328125 C-288.23469664 616.56228627 -271.10796004 628.24744232 -253 639 C-252.19997559 639.48114258 -251.39995117 639.96228516 -250.57568359 640.45800781 C-175.52885979 685.45217914 -89.45022871 711.34820606 -6.4609375 737.3046875 C65.8797057 759.93104792 136.45469512 786.61520536 205 819 C206.09989258 819.51836426 207.19978516 820.03672852 208.33300781 820.57080078 C221.19774093 826.64528486 233.94249394 832.88622807 246.46728516 839.63574219 C249.30142243 841.16236249 252.14106963 842.67850288 254.98046875 844.1953125 C265.46722172 849.81573341 275.88169801 855.49891366 285.99902344 861.76318359 C288.30899301 863.19099056 290.62720981 864.60496878 292.9453125 866.01953125 C304.47929127 873.08121585 315.84148389 880.35826137 327 888 C327.68980957 888.47228027 328.37961914 888.94456055 329.09033203 889.43115234 C345.24712093 900.54918802 360.99612082 912.36515438 376 925 C377.02841846 925.85444042 378.05707794 926.70859078 379.0859375 927.5625 C386.41211817 933.67148855 393.46222169 940.03289857 400.43115234 946.54443359 C402.88971102 948.82546796 405.38668387 951.06402157 407.875 953.3125 C417.01662575 961.68928853 426.15881347 970.3327152 434.16015625 979.8203125 C435.68737544 981.6296295 437.23855066 983.40780374 438.80859375 985.1796875 C464.04659892 1013.76234846 485.31612332 1045.58284976 501.97314453 1079.88867188 C502.67017468 1081.32184275 503.37183549 1082.7527689 504.07763672 1084.18164062 C545.58626066 1168.26180249 555.61865153 1268.30757734 526 1433 C525.79584473 1433.67820801 525.59168945 1434.35641602 525.38134766 1435.05517578 C509.64122647 1487.31237812 480.15271799 1537.48656642 443.24365234 1577.55297852 C441.08962911 1579.90224673 438.96957149 1582.27843678 436.8515625 1584.66015625 C432.09344735 1589.94911935 427.15711856 1595.03475086 422.125 1600.0625 C421.24803467 1600.93938477 420.37106934 1601.81626953 419.4675293 1602.71972656 C414.27435377 1607.86720022 409.05457705 1612.7322699 403.27734375 1617.21875 C401.03785561 1618.97039081 398.96410935 1620.8228065 396.875 1622.75 C331.22284983 1681.62666136 242.28379314 1717.63094525 16 1761 C14.84967285 1761.09909668 13.6993457 1761.19819336 12.51416016 1761.30029297 C11.40218262 1761.39584473 10.29020508 1761.49139648 9.14453125 1761.58984375 C7.70944214 1761.7134729 7.70944214 1761.7134729 6.24536133 1761.83959961 C-19.07151724 1763.83538024 -44.35573758 1764.18846977 -69.73632812 1764.18530273 C-73.14426016 1764.18522186 -76.55205665 1764.19212287 -79.95996094 1764.20581055 C-110.45582449 1764.32614683 -140.82313737 1763.29671646 -171.1875 1760.3125 C-172.02666962 1760.23140991 -172.86583923 1760.15031982 -173.73043823 1760.06677246 C-258.06284469 1751.82008258 -342.69262466 1733.40146124 -421.07659912 1700.79956055 C-422.97752857 1700.00934141 -424.88045861 1699.22410575 -426.78369141 1698.43945312 C-455.46990699 1686.57448737 -483.21792662 1672.694295 -510 1657 C-511.92171518 1655.8864429 -513.84359298 1654.7731664 -515.765625 1653.66015625 C-525.79551043 1647.82282743 -535.64937648 1641.81392661 -545.20800781 1635.23144531 C-547.0668614 1633.95405329 -548.93492213 1632.69104467 -550.8046875 1631.4296875 C-565.98528021 1621.14856112 -580.70965634 1610.42696312 -594.48144531 1598.3125 C-596.72698326 1596.37166206 -599.0522197 1594.5346962 -601.375 1592.6875 C-606.95535055 1588.16849398 -612.14751963 1583.26544475 -617.34326172 1578.31518555 C-620.26117765 1575.5395626 -623.17349961 1572.81064708 -626.29296875 1570.26171875 C-628.47969173 1568.43471643 -630.21712898 1566.75563396 -632 1564.5625 C-635.41424029 1560.54128365 -639.11509336 1556.87971438 -642.875 1553.1875 C-647.94429058 1548.18756041 -652.57839952 1543.0931437 -656.99609375 1537.50390625 C-658.89933361 1535.12578393 -660.88444304 1532.87397492 -662.9375 1530.625 C-667.97094627 1525.01459744 -672.47874538 1519.0221282 -677 1513 C-677.41588379 1512.45166504 -677.83176758 1511.90333008 -678.26025391 1511.33837891 C-697.81302025 1485.52326863 -714.45684554 1457.90168417 -729 1429 C-729.60255615 1427.81688232 -729.60255615 1427.81688232 -730.21728516 1426.60986328 C-765.38338314 1357.19165623 -776 1277.79510783 -776 1201 C-658.19 1201 -540.38 1201 -419 1201 C-418.34 1213.21 -417.68 1225.42 -417 1238 C-416.13673816 1246.71109677 -415.24294613 1255.34551891 -414 1264 C-413.86368164 1264.95938477 -413.72736328 1265.91876953 -413.58691406 1266.90722656 C-406.34024735 1316.29501746 -387.12130548 1361.5390054 -354 1399 C-352.80890625 1400.37478516 -352.80890625 1400.37478516 -351.59375 1401.77734375 C-347.0357357 1406.96754839 -342.29155829 1411.57367069 -337 1416 C-336.05511719 1416.83273437 -335.11023438 1417.66546875 -334.13671875 1418.5234375 C-262.51677559 1481.34167835 -153.6821344 1493.51780594 -40.43713379 1489.58984375 C23.42182519 1485.31728809 86.7434408 1469.14352746 135 1425 C135.94230469 1424.14148437 136.88460937 1423.28296875 137.85546875 1422.3984375 C168.60413325 1393.02525439 188.15964065 1347.98250723 189.16113281 1305.39599609 C189.18066369 1303.77186701 189.19442999 1302.14766074 189.203125 1300.5234375 C189.21013931 1299.6436322 189.21715363 1298.7638269 189.22438049 1297.85736084 C189.24180367 1295.02985467 189.24823371 1292.2025579 189.25 1289.375 C189.25067474 1288.40947205 189.25134949 1287.44394409 189.25204468 1286.44915771 C189.23610311 1272.10621459 188.85618654 1258.10259521 186 1244 C185.74259033 1242.69361572 185.74259033 1242.69361572 185.47998047 1241.36083984 C181.61567136 1222.31556304 175.52740485 1203.97416119 166 1187 C165.63036133 1186.3404834 165.26072266 1185.6809668 164.87988281 1185.00146484 C153.2928367 1164.6971533 136.42359331 1147.2541804 118 1133 C116.99582031 1132.20207031 115.99164062 1131.40414063 114.95703125 1130.58203125 C62.23613705 1088.94275402 -4.42908864 1063.66569814 -67 1041 C-67.79531128 1040.71183411 -68.59062256 1040.42366821 -69.41003418 1040.12677002 C-95.03844371 1030.86308396 -120.91994966 1022.36333263 -146.8125 1013.875 C-148.43259757 1013.34382343 -150.05269441 1012.81264464 -151.67279053 1012.28146362 C-154.0771463 1011.4931713 -156.48150215 1010.70487921 -158.88585854 1009.91658878 C-207.86962957 993.8559176 -256.30010025 976.59019147 -304 957 C-304.65194336 956.73247925 -305.30388672 956.4649585 -305.97558594 956.18933105 C-354.93044944 936.08026361 -403.09079527 914.41655774 -449 888 C-449.98645508 887.43522949 -450.97291016 886.87045898 -451.98925781 886.28857422 C-474.32332357 873.48857503 -495.84370511 859.65796931 -517 845 C-517.76683105 844.47164551 -518.53366211 843.94329102 -519.32373047 843.39892578 C-534.42468196 832.98251497 -548.94193999 821.7866704 -563 810 C-563.5141748 809.57074219 -564.02834961 809.14148437 -564.55810547 808.69921875 C-577.81402844 797.60378072 -590.31549718 785.75656189 -602.5625 773.5625 C-603.30016602 772.82950684 -604.03783203 772.09651367 -604.79785156 771.34130859 C-608.83520531 767.29199913 -612.69708417 763.14665201 -616.42993164 758.81518555 C-618.54592323 756.3688479 -620.74176683 753.99975301 -622.9375 751.625 C-635.50346275 737.81188907 -646.61279533 722.50388103 -657 707 C-657.41040527 706.39172363 -657.82081055 705.78344727 -658.24365234 705.15673828 C-712.83992151 623.88810914 -732.45487646 523.61649657 -715.62109375 386.51171875 C-704.65448902 331.50089919 -681.56108097 279.59115815 -649 234 C-648.41009277 233.17274414 -647.82018555 232.34548828 -647.21240234 231.49316406 C-641.18894133 223.08706094 -635.17510771 214.80164227 -628.078125 207.2578125 C-625.74145931 204.71910429 -623.59453441 202.06762458 -621.4375 199.375 C-618.12984172 195.28500863 -614.66245683 191.5471776 -610.890625 187.88671875 C-609.03522279 186.03515002 -607.32714427 184.11746327 -605.625 182.125 C-599.6744321 175.22559439 -593.16449858 168.87390059 -586.23828125 162.9609375 C-583.95003345 160.95622477 -581.73522669 158.88242667 -579.52124023 156.79638672 C-572.91176566 150.58781309 -566.00823415 144.94241978 -558.82226562 139.41943359 C-556.92927434 137.94490903 -555.06371313 136.44095376 -553.203125 134.92578125 C-545.71690664 128.82950601 -538.12186274 123.23823842 -530 118 C-528.88480351 117.25154375 -527.77159741 116.50011531 -526.66015625 115.74609375 C-509.90380918 104.38852554 -492.67233917 93.97340086 -474.79150391 84.48388672 C-472.00429074 83.00228084 -469.22669259 81.5036738 -466.44921875 80.00390625 C-393.4047274 40.87292874 -310.25067084 17.52104837 -174 0 C-173.1372345 -0.0762561 -172.27446899 -0.15251221 -171.38555908 -0.2310791 C-114.81803218 -5.19381047 -56.54009417 -5.44611855 0 0 Z M-204.39648438 35.75 C-206.59132828 36.01085424 -208.78758447 36.25612386 -210.984375 36.5 C-217.62305684 37.25249623 -224.17243841 38.14089366 -230.70947266 39.54882812 C-234.01557183 40.20004016 -237.33913531 40.55939259 -240.68579102 40.93725586 C-258.68800745 42.98328898 -276.6088864 46.72952826 -293.91015625 52.140625 C-296.49007006 52.85817372 -299.00727976 53.41506975 -301.6328125 53.921875 C-342.32265378 61.85284937 -381.1160293 78.49034261 -418 97 C-419.49781006 97.75095947 -419.49781006 97.75095947 -421.02587891 98.51708984 C-451.86072717 114.08043693 -480.70879803 133.52191668 -507.26904297 155.57324219 C-508.79202839 156.82857742 -510.33405915 158.06073088 -511.87890625 159.2890625 C-524.16631424 169.06771506 -535.28853935 180.19787688 -546.42248535 191.24725342 C-547.41517984 192.23190941 -548.40935014 193.21508027 -549.40515137 194.19659424 C-555.33753629 200.05266462 -560.86923453 206.05617699 -566.05395508 212.58642578 C-567.87773159 214.8483571 -569.77609047 216.99402789 -571.75 219.125 C-583.56479489 232.34075871 -593.41955941 247.13003732 -603 262 C-603.54027832 262.83337891 -604.08055664 263.66675781 -604.63720703 264.52539062 C-606.17015075 266.90294054 -607.68278061 269.29200912 -609.1875 271.6875 C-609.63303223 272.38093506 -610.07856445 273.07437012 -610.53759766 273.78881836 C-613.72031287 278.949125 -615.49404702 284.1399935 -617 290 C-617.66 290 -618.32 290 -619 290 C-620.27339482 292.51956743 -621.54376642 295.04058649 -622.8125 297.5625 C-623.16892578 298.26697266 -623.52535156 298.97144531 -623.89257812 299.69726562 C-626.09004664 304.0720424 -628.11449833 308.4790212 -630 313 C-630.4228125 313.99902344 -630.845625 314.99804688 -631.28125 316.02734375 C-632.531936 319.01375745 -633.76986559 322.00506491 -635 325 C-635.29132813 325.70253906 -635.58265625 326.40507813 -635.8828125 327.12890625 C-637.34107079 330.80525214 -638.39204698 334.46575125 -639.3125 338.3125 C-641.79344441 348.63007835 -645.22205404 358.70985398 -648.59375 368.765625 C-651.989299 378.9467454 -653.62292582 389.00970515 -654.8684082 399.64624023 C-655.65205565 406.33802041 -656.60572756 412.97567961 -657.6875 419.625 C-658.94369492 427.49245877 -659.35670118 435.02046258 -659 443 C-659.66 443 -660.32 443 -661 443 C-661.60640756 488.59353596 -661.60640756 488.59353596 -658 534 C-657.80055519 535.61195121 -657.60130119 537.22392606 -657.40234375 538.8359375 C-657.20318359 540.40214844 -657.20318359 540.40214844 -657 542 C-656.34 542 -655.68 542 -655 542 C-654.95101562 542.73863281 -654.90203125 543.47726562 -654.8515625 544.23828125 C-654.33282369 551.27703028 -653.44261313 558.09265369 -652 565 C-651.79503906 565.98355469 -651.59007812 566.96710937 -651.37890625 567.98046875 C-649.53332169 576.37422902 -647.1368067 584.56652019 -644.65722656 592.78857422 C-643.9996605 595.00114234 -643.36724905 597.21945429 -642.7421875 599.44140625 C-640.34933761 607.89902246 -637.60818958 615.96357776 -634 624 C-631.52636246 629.6687527 -629.32633946 635.40626482 -627.18359375 641.20703125 C-626.17355518 644.07654848 -626.17355518 644.07654848 -624 646 C-623.1484375 647.9453125 -623.1484375 647.9453125 -622.375 650.125 C-622.11460937 650.84945312 -621.85421875 651.57390625 -621.5859375 652.3203125 C-621.39257812 652.87460937 -621.19921875 653.42890625 -621 654 C-620.34 654 -619.68 654 -619 654 C-618.505 656.97 -618.505 656.97 -618 660 C-617.34 660 -616.68 660 -616 660 C-615.74992187 660.67546875 -615.49984375 661.3509375 -615.2421875 662.046875 C-609.76467608 675.06888328 -601.36022651 686.70837457 -593 698 C-592.56010742 698.59441895 -592.12021484 699.18883789 -591.66699219 699.80126953 C-579.43045862 716.22497721 -565.75419761 731.31234525 -551.3125 745.8125 C-550.11850586 747.01350342 -550.11850586 747.01350342 -548.90039062 748.23876953 C-541.71199501 755.40774512 -534.13365819 761.98675429 -526.25 768.375 C-525.55245605 768.94025391 -524.85491211 769.50550781 -524.13623047 770.08789062 C-518.19913557 774.87679305 -512.15710245 779.49682007 -506 784 C-505.39623535 784.44714355 -504.7924707 784.89428711 -504.17041016 785.35498047 C-480.16003738 803.13137434 -455.02092248 819.78885478 -428.91015625 834.31640625 C-426 836 -426 836 -422.87109375 838.21484375 C-419.99731757 840.35201614 -419.99731757 840.35201614 -416 840 C-416 840.66 -416 841.32 -416 842 C-412.63316085 844.43160605 -411.26649636 845 -407 845 C-407 845.66 -407 846.32 -407 847 C-406.41992188 847.25394531 -405.83984375 847.50789063 -405.2421875 847.76953125 C-401.63656614 849.3581466 -398.07509379 850.96177043 -394.5625 852.75 C-392.1755978 854.14614121 -392.1755978 854.14614121 -390 854 C-390 854.66 -390 855.32 -390 856 C-383.29615317 859.41445601 -383.29615317 859.41445601 -376.4375 862.5 C-373.7050671 863.69233436 -371.26060705 864.9575136 -368.6875 866.4375 C-365.70646535 868.12869877 -362.77870647 869.5429541 -359.57421875 870.75390625 C-353.59587437 873.1037789 -347.82303784 875.84613199 -342.02233887 878.60040283 C-320.92532652 888.60326151 -299.54005699 898.42749415 -277.4375 906 C-273.00483854 907.5377933 -268.62799125 909.06916254 -264.375 911.0625 C-259.2566968 913.45702781 -253.87415148 915.09463031 -248.51171875 916.84375 C-245.31695141 917.89564225 -242.17109398 919.01536568 -239.03344727 920.22338867 C-226.90897951 924.85394839 -214.57751553 928.91609402 -202.29003906 933.08740234 C-199.54975607 934.01810936 -196.8100172 934.95040482 -194.0703125 935.8828125 C-192.81554611 936.30785568 -192.81554611 936.30785568 -191.53543091 936.7414856 C-187.64404474 938.06623936 -183.812011 939.45889124 -180 941 C-176.43713181 942.04478151 -172.85891398 943.02147067 -169.27734375 944 C-166.61347264 944.81281407 -164.45594825 945.74589877 -162 947 C-160.57400894 947.37956139 -159.13478124 947.71208615 -157.6875 948 C-154.78679228 948.60113351 -152.03842985 949.28374201 -149.1875 950.125 C-145.90801873 951.17647799 -145.90801873 951.17647799 -142 951 C-142 951.66 -142 952.32 -142 953 C-141.43152344 953.12117188 -140.86304688 953.24234375 -140.27734375 953.3671875 C-127.61913212 956.11437867 -127.61913212 956.11437867 -124.12890625 958.0234375 C-121.61251595 959.17774498 -119.50282697 959.40767156 -116.75 959.625 C-115.85796875 959.69976563 -114.9659375 959.77453125 -114.046875 959.8515625 C-113.37140625 959.90054688 -112.6959375 959.94953125 -112 960 C-112 960.66 -112 961.32 -112 962 C-110.9790625 962.23783203 -110.9790625 962.23783203 -109.9375 962.48046875 C-103.74312886 963.97140116 -97.64185901 965.66305115 -91.5625 967.5625 C-90.88896484 967.77221436 -90.21542969 967.98192871 -89.52148438 968.19799805 C-86.89420264 969.02903009 -84.30056353 969.8749559 -81.75537109 970.93383789 C-78.34433618 972.25370228 -74.86206957 973.24356666 -71.34765625 974.2421875 C-62.75058716 976.729384 -54.25875851 979.48893326 -45.77612305 982.33935547 C-43.40855791 983.1347229 -41.03937095 983.92510839 -38.66992188 984.71484375 C-37.13271709 985.22888143 -35.59560424 985.74319414 -34.05859375 986.2578125 C-33.01933998 986.60478683 -33.01933998 986.60478683 -31.95909119 986.95877075 C-27.26511923 988.53843288 -22.63199364 990.24681007 -18 992 C-15.75143239 992.79572598 -13.50146699 993.58751507 -11.25 994.375 C-2.61206874 997.45203131 5.83405555 1000.81744309 14 1005 C16.73504979 1006.19220119 19.37923103 1007.1074412 22.25390625 1007.921875 C31.44163481 1010.56610136 40.16532874 1013.94278176 48.77954102 1018.07006836 C54.439188 1020.77270477 60.17718164 1023.27021952 65.9375 1025.75 C74.24381569 1029.339883 82.51534034 1032.99847599 90.75 1036.75 C91.71284912 1037.18538086 92.67569824 1037.62076172 93.66772461 1038.06933594 C99.5318038 1040.75511165 105.18614974 1043.68403551 110.79394531 1046.87207031 C112.88384344 1048.15174535 112.88384344 1048.15174535 115 1048 C115 1048.66 115 1049.32 115 1050 C118.36683915 1052.43160605 119.73350364 1053 124 1053 C124 1053.66 124 1054.32 124 1055 C124.94617187 1055.51046875 125.89234375 1056.0209375 126.8671875 1056.546875 C142.49331734 1065.09113317 157.05864414 1074.93452493 171 1086 C172.19882813 1086.89138672 172.19882813 1086.89138672 173.421875 1087.80078125 C187.06467961 1098.12444715 199.07839089 1111.09654776 209 1125 C209.47211914 1125.65484375 209.94423828 1126.3096875 210.43066406 1126.984375 C229.22920852 1153.31966309 241.28288301 1182.43421121 248 1214 C248.21027832 1214.91120605 248.42055664 1215.82241211 248.63720703 1216.76123047 C252.3049936 1233.02668777 252.3669691 1249.28182563 252.375 1265.875 C252.37799103 1267.51077499 252.37799103 1267.51077499 252.38104248 1269.17959595 C252.37314604 1307.37360528 246.98187993 1346.26711143 228.05810547 1380.09716797 C226.87354387 1382.22741095 225.73564884 1384.37969626 224.59765625 1386.53515625 C219.72782802 1395.65592689 214.49934881 1403.93511462 208 1412 C207.35546875 1412.8353125 206.7109375 1413.670625 206.046875 1414.53125 C194.66933084 1429.14630672 181.56475932 1442.57626707 167 1454 C166.0615625 1454.76699219 165.123125 1455.53398438 164.15625 1456.32421875 C148.3448298 1468.97743001 130.55258718 1478.69908479 112.49755859 1487.74414062 C110.41002758 1488.79382386 108.33817041 1489.86698812 106.26953125 1490.953125 C93.18170203 1497.52005455 78.93200275 1501.60372995 65 1506 C64.02691895 1506.30856934 63.05383789 1506.61713867 62.05126953 1506.93505859 C46.6236849 1511.7638441 30.86484468 1514.96665419 15 1518 C14.00726074 1518.19335938 13.01452148 1518.38671875 11.99169922 1518.5859375 C-1.42312647 1521.16113617 -14.92397747 1522.7596696 -28.5 1524.1875 C-29.68562531 1524.31478485 -29.68562531 1524.31478485 -30.89520264 1524.44464111 C-54.32188039 1526.93057103 -77.77349315 1527.16746544 -101.30688477 1527.13037109 C-105.0072784 1527.1245724 -108.70760109 1527.12803626 -112.40799236 1527.13394356 C-115.29476969 1527.13755397 -118.18153005 1527.13641011 -121.06830788 1527.13381577 C-122.43459901 1527.13315306 -123.80089173 1527.13395175 -125.16718102 1527.13629532 C-127.06026555 1527.13884088 -128.95335559 1527.13427174 -130.84643555 1527.12939453 C-132.45327461 1527.12820114 -132.45327461 1527.12820114 -134.09257507 1527.12698364 C-136.84198259 1527.00690151 -139.32044142 1526.60061612 -142 1526 C-143.3882091 1525.87549119 -144.77947583 1525.78081047 -146.171875 1525.71875 C-147.29142578 1525.66267578 -147.29142578 1525.66267578 -148.43359375 1525.60546875 C-149.99345742 1525.53444629 -151.5533542 1525.46414783 -153.11328125 1525.39453125 C-158.89717834 1525.10282166 -158.89717834 1525.10282166 -160 1524 C-162.60500487 1523.66406737 -165.19931879 1523.38065505 -167.8125 1523.125 C-183.1960482 1521.49815982 -198.30809602 1519.08548315 -213.42822266 1515.80151367 C-219.49051685 1514.48851807 -225.54869038 1513.38336195 -231.68164062 1512.44946289 C-234 1512 -234 1512 -235 1511 C-236.37176031 1510.71854017 -237.7512672 1510.47473879 -239.1328125 1510.24609375 C-246.26181712 1508.876301 -253.03134963 1506.43027702 -259.875 1504.0625 C-268.04510778 1501.24271924 -276.16653179 1498.55553183 -284.6015625 1496.61865234 C-287.66690538 1495.8279786 -290.22394359 1494.50872631 -293 1493 C-294.51473972 1492.38071415 -296.03645688 1491.7783839 -297.5625 1491.1875 C-302.74869885 1489.15062432 -307.78166059 1486.83227143 -312.82421875 1484.46484375 C-314.95562113 1483.48172457 -317.10494647 1482.53663535 -319.26953125 1481.62890625 C-324.85092638 1479.25690962 -330.21195389 1476.41482937 -335.6171875 1473.671875 C-339.26294475 1471.83237438 -342.88508979 1470.04919439 -346.640625 1468.44140625 C-368.51244823 1459.05686814 -390.51271847 1444.05766435 -408 1428 C-409.27979864 1426.888951 -410.56118103 1425.77972485 -411.84375 1424.671875 C-423.4696102 1414.51241345 -433.86880615 1403.43737719 -443 1391 C-443.84760437 1389.8710548 -444.69526066 1388.74214857 -445.54296875 1387.61328125 C-452.90365168 1377.67792056 -459.53609439 1367.10199612 -465 1356 C-465.66 1356 -466.32 1356 -467 1356 C-467.09667969 1355.16984375 -467.19335938 1354.3396875 -467.29296875 1353.484375 C-468.11951499 1349.411009 -469.58503386 1346.00848495 -471.3125 1342.25 C-471.9540677 1340.81552542 -472.59469739 1339.38063093 -473.234375 1337.9453125 C-473.54181641 1337.25985352 -473.84925781 1336.57439453 -474.16601562 1335.86816406 C-478.21264492 1326.80352491 -481.27639586 1317.41945711 -484.3425293 1307.98901367 C-484.89824791 1306.30782557 -485.49008867 1304.63864258 -486.08984375 1302.97265625 C-487.22687352 1299.25900966 -487.84631162 1295.51652418 -488.4375 1291.6875 C-488.69566358 1290.06755649 -488.95479977 1288.44776772 -489.21484375 1286.828125 C-489.40989502 1285.60899414 -489.40989502 1285.60899414 -489.60888672 1284.36523438 C-490.07465103 1281.54855233 -490.5986191 1278.74527218 -491.12768555 1275.93994141 C-495.19857132 1254.04524951 -496.25512746 1232.34617616 -497 1210 C-567.95 1210 -638.9 1210 -712 1210 C-712.66975949 1247.50673777 -712.66975949 1247.50673777 -707 1285 C-706.37076837 1288.94522822 -705.90496343 1292.90774421 -705.4375 1296.875 C-705.19004146 1298.95618977 -704.93894409 1301.03695126 -704.68359375 1303.1171875 C-704.57587646 1304.03097168 -704.46815918 1304.94475586 -704.35717773 1305.88623047 C-704.21337007 1307.9797661 -704.21337007 1307.9797661 -703 1309 C-702.66941819 1310.74306773 -702.38682879 1312.49528774 -702.125 1314.25 C-700.68926048 1323.19412544 -698.82484792 1331.95323117 -695.8125 1340.50390625 C-694.75881713 1343.7409416 -693.91876294 1347.01789456 -693.0625 1350.3125 C-690.7057434 1362.02791819 -690.7057434 1362.02791819 -685 1372 C-684.32371893 1373.47758889 -683.7060877 1374.98244865 -683.125 1376.5 C-682.77566406 1377.39976563 -682.42632813 1378.29953125 -682.06640625 1379.2265625 C-681.71449219 1380.14179687 -681.36257813 1381.05703125 -681 1382 C-680.02694585 1384.46194424 -679.04446713 1386.91973271 -678.0546875 1389.375 C-677.31982543 1391.20399003 -676.59674767 1393.03774026 -675.8828125 1394.875 C-673.2944635 1401.37124848 -670.19521282 1407.23614 -666.58203125 1413.21875 C-664.58792564 1416.7244369 -663.25089122 1420.17374451 -662 1424 C-661.34 1424 -660.68 1424 -660 1424 C-659.74089844 1424.69480469 -659.48179687 1425.38960937 -659.21484375 1426.10546875 C-643.22430563 1464.20511102 -609.25475255 1497.77768017 -580.5625 1526.5625 C-579.63904785 1527.490625 -578.7155957 1528.41875 -577.76416016 1529.375 C-572.66883304 1534.45833811 -567.47604628 1539.33141554 -562 1544 C-560.74998346 1545.09224274 -559.50127652 1546.18598612 -558.25390625 1547.28125 C-551.64255561 1553.0549515 -545.00260007 1558.70269632 -538 1564 C-536.64841797 1565.06347656 -536.64841797 1565.06347656 -535.26953125 1566.1484375 C-522.05017437 1576.50276266 -508.25850528 1586.13318948 -494 1595 C-492.21930438 1596.1382567 -490.44275923 1597.28278186 -488.66699219 1598.42871094 C-486.86234452 1599.59284648 -485.05449071 1600.75185636 -483.24609375 1601.91015625 C-481.3129993 1603.15468757 -479.38605107 1604.40898298 -477.47265625 1605.68359375 C-473.94349807 1608.00350593 -472.33718773 1609 -468 1609 C-468 1609.66 -468 1610.32 -468 1611 C-462.76791096 1614.00162932 -457.57213931 1616.66983265 -452 1619 C-449.88816508 1620.05591746 -447.79009911 1621.13368082 -445.69921875 1622.23046875 C-444.00724487 1623.13751345 -444.00724487 1623.13751345 -442 1623 C-442 1623.66 -442 1624.32 -442 1625 C-441.10023438 1625.38929687 -440.20046875 1625.77859375 -439.2734375 1626.1796875 C-430.01377154 1630.20147602 -420.80925824 1634.33602539 -411.62841797 1638.53466797 C-407.82366149 1640.27262613 -404.02118919 1642.00717917 -400.171875 1643.64453125 C-397.35203704 1644.84956053 -394.58419849 1646.12685188 -391.8125 1647.4375 C-386.87911198 1649.69722244 -381.8813717 1651.44109336 -376.71875 1653.09765625 C-373.3702636 1654.20900734 -370.22589384 1655.57316234 -367 1657 C-362.56670929 1658.80337249 -358.29743087 1660.21038918 -353.640625 1661.30859375 C-346.46804756 1663.07729421 -339.46392901 1665.28957072 -332.4375 1667.5625 C-330.55321289 1668.16094727 -330.55321289 1668.16094727 -328.63085938 1668.77148438 C-327.43138672 1669.15755859 -326.23191406 1669.54363281 -324.99609375 1669.94140625 C-323.37465454 1670.46263062 -323.37465454 1670.46263062 -321.72045898 1670.99438477 C-319 1672 -319 1672 -316 1674 C-313.95934151 1674.61070282 -311.89811959 1675.15388815 -309.828125 1675.65625 C-307.99507812 1676.10677734 -307.99507812 1676.10677734 -306.125 1676.56640625 C-304.84625 1676.87449219 -303.5675 1677.18257812 -302.25 1677.5 C-299.73412645 1678.11356508 -297.21849376 1678.72811878 -294.703125 1679.34375 C-293.02718262 1679.74883789 -293.02718262 1679.74883789 -291.31738281 1680.16210938 C-288.96763185 1680.75559961 -286.62862318 1681.39239052 -284.29858398 1682.05908203 C-280.81900531 1683.05162856 -277.37369322 1683.73706233 -273.8125 1684.375 C-268.58997189 1685.31613781 -263.38438732 1686.31891957 -258.18638611 1687.38708496 C-246.81418578 1689.71590331 -235.40250865 1691.6887583 -223.9375 1693.5 C-222.51792496 1693.72494644 -222.51792496 1693.72494644 -221.06967163 1693.95443726 C-208.34346296 1695.96046509 -195.60907204 1697.81593541 -182.8125 1699.3125 C-181.59103271 1699.45945312 -180.36956543 1699.60640625 -179.11108398 1699.7578125 C-152.5664487 1702.69368792 -125.91683388 1703.37888713 -99.23514557 1703.31745148 C-96.83170692 1703.31240917 -94.42828479 1703.31095247 -92.02484131 1703.30999756 C-60.84491441 1703.28364949 -29.87676388 1701.96613751 1.13973999 1698.66702271 C6.36221235 1698.1207956 11.56692311 1697.78398655 16.8125 1697.5625 C23.33972695 1697.23061545 29.47757806 1696.21923076 35.875 1694.81640625 C40.77450548 1693.78920795 45.72452674 1693.19530169 50.6875 1692.5625 C64.3854619 1690.78409748 77.84020612 1688.16297265 91.19921875 1684.6484375 C94.36876671 1683.91462305 97.52824948 1683.44920407 100.75 1683 C104.48234922 1682.47062031 107.81730056 1681.85336357 111.3125 1680.4375 C115.36586458 1678.85737483 118.69238913 1678.38460811 123 1678 C123 1677.34 123 1676.68 123 1676 C124.175625 1675.938125 125.35125 1675.87625 126.5625 1675.8125 C133.05074934 1675.09950557 139.03867204 1672.76960434 145.16259766 1670.62890625 C147.73484007 1669.74847887 150.33292533 1668.96643822 152.9375 1668.1875 C173.72801445 1661.95694929 173.72801445 1661.95694929 193.703125 1653.58203125 C198.09733692 1651.4734343 202.57158106 1649.57947824 207.0625 1647.6875 C207.88532471 1647.33751953 208.70814941 1646.98753906 209.5559082 1646.62695312 C210.33281006 1646.30017578 211.10971191 1645.97339844 211.91015625 1645.63671875 C212.60246338 1645.34498779 213.29477051 1645.05325684 214.00805664 1644.75268555 C215.98648932 1644.00510521 217.93960416 1643.46975295 220 1643 C220 1642.34 220 1641.68 220 1641 C220.71027344 1640.88970459 221.42054688 1640.77940918 222.15234375 1640.66577148 C225.26682469 1639.93761738 227.71689051 1638.80361138 230.5625 1637.34765625 C231.60664062 1636.81849609 232.65078125 1636.28933594 233.7265625 1635.74414062 C234.80679688 1635.18919922 235.88703125 1634.63425781 237 1634.0625 C239.1449296 1632.96827875 241.29073244 1631.87576718 243.4375 1630.78515625 C244.38496094 1630.29926025 245.33242187 1629.81336426 246.30859375 1629.31274414 C248.83571072 1628.08013275 251.37595019 1627.00693745 254 1626 C254 1625.34 254 1624.68 254 1624 C254.68449219 1623.74476562 255.36898437 1623.48953125 256.07421875 1623.2265625 C287.55004999 1610.03108719 316.62640226 1585.44957877 342 1563 C342.7643335 1562.32799561 343.52866699 1561.65599121 344.31616211 1560.96362305 C350.48210009 1555.48858428 356.38048744 1549.77476718 362.1965332 1543.93383789 C363.69304925 1542.43193075 365.194883 1540.93548938 366.69726562 1539.43945312 C416.01319239 1490.16414568 449.83829084 1423.51402149 462.60302734 1355.12158203 C462.99738749 1353.01396231 463.4122813 1350.91128945 463.83203125 1348.80859375 C465.58667342 1339.92067265 467.07275924 1331.01494437 468 1322 C468.13752686 1320.68902344 468.13752686 1320.68902344 468.27783203 1319.3515625 C470.01925864 1301.76639503 470.1884404 1284.21858718 470.1875 1266.5625 C470.18840637 1265.46273834 470.18931274 1264.36297668 470.19024658 1263.22988892 C470.18841552 1243.57650292 470.09830264 1223.90981436 467.1875 1204.4375 C467.01154297 1203.21571045 466.83558594 1201.9939209 466.65429688 1200.73510742 C465.08699313 1190.09096765 463.20452197 1179.52957882 461 1169 C460.84031738 1168.2265625 460.68063477 1167.453125 460.51611328 1166.65625 C458.30428258 1156.02149853 455.65849561 1145.54257477 452.61474609 1135.11572266 C452.04887339 1133.16820364 451.50204055 1131.21517904 450.95703125 1129.26171875 C437.52368525 1083.33616401 412.58745578 1039.61137155 382 1003 C380.81857422 1001.54207031 380.81857422 1001.54207031 379.61328125 1000.0546875 C371.88564192 990.71036998 363.36207372 982.14569845 354.8125 973.5625 C354.20780884 972.95263245 353.60311768 972.34276489 352.98010254 971.7144165 C345.97423793 964.66136557 338.91187092 958.04689704 331 952 C329.06518617 950.41635361 327.16022464 948.80101815 325.25 947.1875 C316.29519605 939.70597999 307.22020164 932.37948267 297.5859375 925.78515625 C295.14161622 924.09776225 292.7372093 922.36193544 290.33544922 920.61474609 C269.93560408 903.63003136 269.93560408 903.63003136 247 894 C247 893.34 247 892.68 247 892 C246.12859375 891.57589844 245.2571875 891.15179687 244.359375 890.71484375 C237.15680233 887.17761191 230.18800998 883.45794725 223.328125 879.28515625 C221.15139052 877.8389095 221.15139052 877.8389095 219 878 C219 877.34 219 876.68 219 876 C218.41992188 875.74605469 217.83984375 875.49210937 217.2421875 875.23046875 C213.63656614 873.6418534 210.07509379 872.03822957 206.5625 870.25 C204.1755978 868.85385879 204.1755978 868.85385879 202 869 C202 868.34 202 867.68 202 867 C192.72512238 862.17564929 192.72512238 862.17564929 183.125 858.0625 C175.13049269 855.00499803 167.58698189 850.85407268 159.97363281 846.96484375 C159.30428711 846.62582031 158.63494141 846.28679688 157.9453125 845.9375 C157.35508301 845.63714844 156.76485352 845.33679687 156.15673828 845.02734375 C153.14405509 843.592278 150.07153196 842.30246516 147 841 C145.32707886 840.28166992 145.32707886 840.28166992 143.62036133 839.54882812 C127.38185287 832.58418529 111.11685253 825.74585562 94.6340332 819.37695312 C93.55210693 818.95865234 92.47018066 818.54035156 91.35546875 818.109375 C90.41340576 817.74811523 89.47134277 817.38685547 88.50073242 817.01464844 C86 816 86 816 83.8684082 814.92675781 C81.0441765 813.52589755 78.02949832 812.85835786 75 812 C70.76697568 810.5573162 66.68471142 808.87261336 62.625 807 C58.70605188 805.22538198 54.77074996 803.98445989 50.63745117 802.81225586 C48.27950121 802.08607799 46.07473512 801.24492473 43.8046875 800.28515625 C36.80389231 797.44852094 29.6357753 795.1123338 22.46899414 792.73608398 C20.06960888 791.93985905 17.67242737 791.13724799 15.27539062 790.33398438 C8.04491475 787.92195244 0.83363061 785.6058385 -6.54272461 783.67358398 C-10.86071635 782.48994373 -15.07858273 781.01371825 -19.3125 779.5625 C-33.85282308 774.65565585 -48.69740898 769.77937105 -64 768 C-64 767.34 -64 766.68 -64 766 C-64.63164063 765.82984375 -65.26328125 765.6596875 -65.9140625 765.484375 C-72.47566229 763.70688111 -79.01365698 761.85750805 -85.54296875 759.96484375 C-87.9667783 759.28836809 -90.40331585 758.65665064 -92.84765625 758.05859375 C-97.37808244 756.93693353 -101.80743246 755.55148133 -106.25 754.125 C-107.16604004 753.83254395 -108.08208008 753.54008789 -109.02587891 753.23876953 C-120.01814026 749.70699831 -130.96338381 746.0306309 -141.90722656 742.35205078 C-149.82041511 739.69689177 -157.74396041 737.09931117 -165.73019409 734.67098999 C-169.38092649 733.55095726 -172.91695141 732.29112328 -176.4375 730.8125 C-179.4752654 729.53745131 -182.33075676 728.6385747 -185.5625 728 C-189.61733487 727.1933163 -193.08099361 725.75952818 -196.8125 724.00390625 C-198.87156325 723.05894329 -200.93019784 722.26213144 -203.0625 721.5 C-205.70097795 720.53821564 -207.97950453 719.49275658 -210.5 718.1875 C-214.17343044 716.29810652 -217.92685348 714.89916099 -221.8125 713.5 C-233.19852803 709.37667627 -244.165234 704.23048389 -255.19580078 699.25244141 C-257.30437112 698.3106892 -259.42809041 697.40274155 -261.55859375 696.51171875 C-267.89453421 693.72850768 -274.02229266 690.50705482 -280.1953125 687.3828125 C-289.75380743 682.2982958 -289.75380743 682.2982958 -300 679 C-300 678.34 -300 677.68 -300 677 C-301.00546875 676.59265625 -302.0109375 676.1853125 -303.046875 675.765625 C-306.99078741 674.07311184 -310.59750894 671.99256436 -314.25 669.75 C-314.90548828 669.35159912 -315.56097656 668.95319824 -316.23632812 668.54272461 C-321.87366903 665.1048008 -327.46676653 661.60338638 -333 658 C-333.56686523 657.63293945 -334.13373047 657.26587891 -334.71777344 656.88769531 C-343.80527577 650.98879029 -352.57657686 644.81702501 -361 638 C-361.53915039 637.56526367 -362.07830078 637.13052734 -362.63378906 636.68261719 C-377.47367875 624.60933821 -391.49940615 611.136593 -402.78955078 595.65039062 C-403.99061764 594.01279241 -405.22388807 592.40437631 -406.46484375 590.796875 C-420.95026119 571.7050605 -430.35592882 549.89220331 -437 527 C-437.66 527 -438.32 527 -439 527 C-438.938125 525.948125 -438.87625 524.89625 -438.8125 523.8125 C-438.80597973 520.06986433 -439.45317932 516.80993102 -440.375 513.1875 C-445.99554009 489.82629782 -444.62839261 465.2321378 -443.125 441.4375 C-443.00753418 439.51103638 -443.00753418 439.51103638 -442.88769531 437.5456543 C-442.76152832 435.75768433 -442.76152832 435.75768433 -442.6328125 433.93359375 C-442.55949707 432.88228271 -442.48618164 431.83097168 -442.41064453 430.74780273 C-442.0037809 428.02529968 -441.22960579 426.42138666 -440 424 C-439.64632467 422.02907799 -439.35713402 420.0460936 -439.11328125 418.05859375 C-438.1214622 411.14290121 -436.31892371 404.70387111 -434.1875 398.0625 C-433.82857666 396.92441895 -433.46965332 395.78633789 -433.09985352 394.61376953 C-432.08076588 391.40436631 -431.04580616 388.20078454 -430 385 C-429.75314453 384.24412598 -429.50628906 383.48825195 -429.25195312 382.70947266 C-426.69426188 374.98781055 -423.59377766 367.5505891 -420.23413086 360.14990234 C-418.56848131 356.71327981 -418.56848131 356.71327981 -418 353 C-417.34 353 -416.68 353 -416 353 C-415.61972656 352.03320312 -415.23945312 351.06640625 -414.84765625 350.0703125 C-412.83437414 345.38481316 -410.17582981 341.16575851 -407.4375 336.875 C-406.90374756 336.03678711 -406.36999512 335.19857422 -405.82006836 334.33496094 C-401.24907146 327.24069756 -396.38893898 320.50212856 -391 314 C-390.51982422 313.41831055 -390.03964844 312.83662109 -389.54492188 312.23730469 C-378.22308629 298.62362882 -366.03924557 285.83660562 -352 275 C-351.00871094 274.20335937 -350.01742188 273.40671875 -348.99609375 272.5859375 C-317.02641743 247.06881082 -275.65438019 229.11833725 -235.56640625 221.52734375 C-232.84607154 220.96837086 -230.18403462 220.27504289 -227.5 219.5625 C-215.0448494 216.43306518 -202.29882736 214.83718175 -189.57824707 213.19772339 C-187.66464115 212.95068594 -185.75173149 212.69827245 -183.83886719 212.44555664 C-160.45022277 209.51378679 -137.13602781 208.66769285 -113.59399414 208.73925781 C-109.82195459 208.75064111 -106.05019765 208.74386211 -102.27816772 208.73238945 C-77.60003282 208.6685579 -53.12110144 209.72752645 -28.64111328 213.06738281 C-26.33642053 213.38023703 -24.02986637 213.67509629 -21.72265625 213.96875 C-11.65061719 215.28836089 -1.80469887 217.20966535 8.07928467 219.54638672 C10.90341488 220.21335852 13.73335069 220.8547104 16.5625 221.5 C17.59632813 221.74234375 18.63015625 221.9846875 19.6953125 222.234375 C22.06125499 222.78251298 24.43164072 223.31160968 26.8046875 223.828125 C41.67059408 227.10886449 56.84575567 231.11190782 70.5625 237.81640625 C73.37418777 239.18169695 76.23443337 240.37375447 79.125 241.5625 C80.63707031 242.19091797 80.63707031 242.19091797 82.1796875 242.83203125 C83.84893281 243.52331151 85.52008307 244.21006914 87.1953125 244.88671875 C106.73436977 253.09609452 125.66227281 265.59521498 142 279 C142.80800049 279.65572998 142.80800049 279.65572998 143.63232422 280.32470703 C157.69666629 291.79167279 170.97746784 304.56067591 182 319 C183.02391479 320.30793777 184.04872621 321.6151739 185.07421875 322.921875 C195.99429863 336.91963584 205.63985011 351.33389002 214 367 C214.33209473 367.61891113 214.66418945 368.23782227 215.00634766 368.87548828 C240.78919575 417.3769872 249.06078269 468.70191528 251 523 C321.95 523 392.9 523 466 523 C466 506.3070878 465.94200656 490.44646041 464 474 C463.89284668 473.06736328 463.78569336 472.13472656 463.67529297 471.17382812 C461.69645047 454.20244529 459.56522813 436.87956044 454.703125 420.45703125 C453.91388671 417.69908188 453.29997957 414.92745012 452.6875 412.125 C451.31778066 406.08808884 449.69130141 400.14050754 448 394.1875 C447.75080811 393.30400879 447.50161621 392.42051758 447.24487305 391.51025391 C445.92325388 386.91079395 444.4771226 382.414104 442.75048828 377.95092773 C441.97511155 375.93530136 441.24718606 373.90717175 440.52734375 371.87109375 C434.19489532 354.12861162 426.77654032 336.81065446 418.08349609 320.09326172 C416.8910854 317.78958229 415.72117422 315.47509468 414.55078125 313.16015625 C404.75352823 293.9422577 393.59892198 275.51208018 381 258 C380.46407227 257.25298828 379.92814453 256.50597656 379.37597656 255.73632812 C371.72349392 245.11103278 363.76382029 234.79727344 355.41064453 224.71484375 C354.16276956 223.19787009 352.93707342 221.66271117 351.71484375 220.125 C345.51420398 212.33653285 338.69112662 205.17837576 331.84716797 197.96044922 C329.61930751 195.59596078 327.42279019 193.20425811 325.23071289 190.80664062 C317.55915915 182.41789464 309.73922461 174.18848801 301.08203125 166.80078125 C298.56846422 164.62675798 296.13223771 162.37609512 293.6875 160.125 C288.27900978 155.20952862 282.7413329 150.52063624 277 146 C276.28618164 145.43539062 275.57236328 144.87078125 274.83691406 144.2890625 C261.39407745 133.70605352 247.50579616 124.06675593 233 115 C231.66243652 114.1639624 231.66243652 114.1639624 230.29785156 113.31103516 C220.2745035 107.08778846 210.15372376 101.29407374 199.50732422 96.2109375 C196.4825151 94.75007545 193.47858248 93.24932605 190.47265625 91.75 C175.44873953 84.29540933 160.35746073 77.69528158 144.58300781 71.94311523 C142.3908905 71.14272306 140.2080366 70.32299444 138.02734375 69.4921875 C103.7091872 56.6168469 66.66138885 46.14931629 30.1640625 41.703125 C26.52861061 41.25088929 22.94460865 40.62763435 19.3445282 39.95059204 C8.553206 37.93711829 -2.2606728 36.8586206 -13.1875 35.875 C-15.93625783 35.62219065 -18.68481126 35.36736782 -21.43318176 35.11038208 C-23.12358708 34.95286064 -24.81424022 34.79796746 -26.50517273 34.64620972 C-27.27069962 34.57588531 -28.0362265 34.50556091 -28.82495117 34.43310547 C-29.48871262 34.37331512 -30.15247406 34.31352478 -30.83634949 34.25192261 C-32.45368355 34.06360984 -34.06294014 33.80346883 -35.6640625 33.50743103 C-39.95653364 32.85450122 -44.21549704 32.64033438 -48.55004883 32.44799805 C-49.47245519 32.40595843 -50.39486155 32.36391882 -51.34521961 32.32060528 C-61.29629085 31.89865475 -71.24061083 31.83597983 -81.19921875 31.83203125 C-83.17283652 31.82879918 -85.14645408 31.82543385 -87.12007141 31.82194519 C-91.23019971 31.81601576 -95.34030719 31.81409863 -99.45043945 31.81469727 C-103.58524996 31.81477813 -107.71994873 31.80788841 -111.85473633 31.79418945 C-142.80586224 31.69336381 -173.62009981 32.08546305 -204.39648438 35.75 Z " fill="#010101" transform="translate(1097,285)"/>
<path d="M0 0 C0.66 0.33 1.32 0.66 2 1 C-8.23 11.23 -18.46 21.46 -29 32 C-29.66 31.67 -30.32 31.34 -31 31 C-10.94954128 8.9587156 -10.94954128 8.9587156 0 0 Z " fill="#2A2A2A" transform="translate(741,562)"/>
</svg>
